<mxfile host="app.diagrams.net" modified="2024-07-17T08:20:14.492Z" agent="Mozilla/5.0 (Macintosh; Intel Mac OS X 10_15_7) AppleWebKit/537.36 (KHTML, like Gecko) Chrome/126.0.0.0 Safari/537.36" etag="wp0qoyTI9xNCXqJVUERE" version="24.7.0" type="github">
  <diagram name="페이지-1" id="NbhRTZ1SifwsKSnflMA-">
    <mxGraphModel dx="984" dy="1829" grid="1" gridSize="10" guides="1" tooltips="1" connect="1" arrows="1" fold="1" page="1" pageScale="1" pageWidth="827" pageHeight="1169" math="0" shadow="0">
      <root>
        <mxCell id="0" />
        <mxCell id="1" parent="0" />
        <mxCell id="13U1sQ4McdwzNEOscN47-1" value="학생" style="whiteSpace=wrap;html=1;align=center;" vertex="1" parent="1">
          <mxGeometry x="655" y="400" width="90" height="40" as="geometry" />
        </mxCell>
        <mxCell id="13U1sQ4McdwzNEOscN47-2" value="과목" style="whiteSpace=wrap;html=1;align=center;" vertex="1" parent="1">
          <mxGeometry x="120" y="400" width="100" height="40" as="geometry" />
        </mxCell>
        <mxCell id="13U1sQ4McdwzNEOscN47-3" value="교수" style="whiteSpace=wrap;html=1;align=center;" vertex="1" parent="1">
          <mxGeometry x="126" y="80" width="94" height="40" as="geometry" />
        </mxCell>
        <mxCell id="13U1sQ4McdwzNEOscN47-9" value="학과" style="whiteSpace=wrap;html=1;align=center;" vertex="1" parent="1">
          <mxGeometry x="650" y="80" width="100" height="40" as="geometry" />
        </mxCell>
        <mxCell id="13U1sQ4McdwzNEOscN47-12" value="수강" style="shape=rhombus;double=1;perimeter=rhombusPerimeter;whiteSpace=wrap;html=1;align=center;" vertex="1" parent="1">
          <mxGeometry x="390" y="390" width="104" height="60" as="geometry" />
        </mxCell>
        <mxCell id="13U1sQ4McdwzNEOscN47-17" value="소속" style="shape=rhombus;double=1;perimeter=rhombusPerimeter;whiteSpace=wrap;html=1;align=center;" vertex="1" parent="1">
          <mxGeometry x="640" y="240" width="120" height="60" as="geometry" />
        </mxCell>
        <mxCell id="13U1sQ4McdwzNEOscN47-22" value="소속" style="shape=rhombus;double=1;perimeter=rhombusPerimeter;whiteSpace=wrap;html=1;align=center;" vertex="1" parent="1">
          <mxGeometry x="400" y="70" width="120" height="60" as="geometry" />
        </mxCell>
        <mxCell id="13U1sQ4McdwzNEOscN47-31" value="N" style="text;strokeColor=none;fillColor=none;spacingLeft=4;spacingRight=4;overflow=hidden;rotatable=0;points=[[0,0.5],[1,0.5]];portConstraint=eastwest;fontSize=12;whiteSpace=wrap;html=1;" vertex="1" parent="1">
          <mxGeometry x="300" y="60" width="40" height="30" as="geometry" />
        </mxCell>
        <mxCell id="13U1sQ4McdwzNEOscN47-38" value="학번" style="ellipse;whiteSpace=wrap;html=1;align=center;" vertex="1" parent="1">
          <mxGeometry x="610" y="500" width="100" height="40" as="geometry" />
        </mxCell>
        <mxCell id="13U1sQ4McdwzNEOscN47-45" value="" style="endArrow=none;html=1;rounded=0;exitX=1;exitY=0.5;exitDx=0;exitDy=0;entryX=0;entryY=0.5;entryDx=0;entryDy=0;" edge="1" parent="1" source="13U1sQ4McdwzNEOscN47-12" target="13U1sQ4McdwzNEOscN47-1">
          <mxGeometry relative="1" as="geometry">
            <mxPoint x="384" y="349.5" as="sourcePoint" />
            <mxPoint x="570" y="350" as="targetPoint" />
          </mxGeometry>
        </mxCell>
        <mxCell id="13U1sQ4McdwzNEOscN47-47" value="" style="endArrow=none;html=1;rounded=0;exitX=0.5;exitY=0;exitDx=0;exitDy=0;entryX=0.5;entryY=1;entryDx=0;entryDy=0;" edge="1" parent="1" source="13U1sQ4McdwzNEOscN47-38" target="13U1sQ4McdwzNEOscN47-1">
          <mxGeometry relative="1" as="geometry">
            <mxPoint x="476" y="380" as="sourcePoint" />
            <mxPoint x="580" y="360" as="targetPoint" />
          </mxGeometry>
        </mxCell>
        <mxCell id="13U1sQ4McdwzNEOscN47-54" value="" style="endArrow=none;html=1;rounded=0;entryX=0.5;entryY=1;entryDx=0;entryDy=0;exitX=0.5;exitY=0;exitDx=0;exitDy=0;" edge="1" parent="1" source="13U1sQ4McdwzNEOscN47-9">
          <mxGeometry relative="1" as="geometry">
            <mxPoint x="700" y="60" as="sourcePoint" />
            <mxPoint x="697.5" y="-10" as="targetPoint" />
          </mxGeometry>
        </mxCell>
        <mxCell id="13U1sQ4McdwzNEOscN47-56" value="&lt;div&gt;교수코드&lt;/div&gt;" style="ellipse;whiteSpace=wrap;html=1;align=center;" vertex="1" parent="1">
          <mxGeometry x="100" y="-40" width="100" height="40" as="geometry" />
        </mxCell>
        <mxCell id="13U1sQ4McdwzNEOscN47-58" value="" style="endArrow=none;html=1;rounded=0;exitX=0.5;exitY=0;exitDx=0;exitDy=0;entryX=0.5;entryY=1;entryDx=0;entryDy=0;" edge="1" parent="1" source="13U1sQ4McdwzNEOscN47-3">
          <mxGeometry relative="1" as="geometry">
            <mxPoint x="165" y="60" as="sourcePoint" />
            <mxPoint x="160" as="targetPoint" />
          </mxGeometry>
        </mxCell>
        <mxCell id="13U1sQ4McdwzNEOscN47-60" value="" style="endArrow=none;html=1;rounded=0;exitX=0.5;exitY=0;exitDx=0;exitDy=0;entryX=0.5;entryY=1;entryDx=0;entryDy=0;" edge="1" parent="1" source="13U1sQ4McdwzNEOscN47-49" target="13U1sQ4McdwzNEOscN47-2">
          <mxGeometry relative="1" as="geometry">
            <mxPoint x="222.5" y="500" as="sourcePoint" />
            <mxPoint x="217.5" y="440" as="targetPoint" />
          </mxGeometry>
        </mxCell>
        <mxCell id="13U1sQ4McdwzNEOscN47-62" value="&lt;div&gt;과목코드&lt;/div&gt;" style="ellipse;whiteSpace=wrap;html=1;align=center;" vertex="1" parent="1">
          <mxGeometry x="640" y="-50" width="100" height="40" as="geometry" />
        </mxCell>
        <mxCell id="13U1sQ4McdwzNEOscN47-64" value="1" style="text;strokeColor=none;fillColor=none;spacingLeft=4;spacingRight=4;overflow=hidden;rotatable=0;points=[[0,0.5],[1,0.5]];portConstraint=eastwest;fontSize=12;whiteSpace=wrap;html=1;" vertex="1" parent="1">
          <mxGeometry x="610" y="50" width="40" height="30" as="geometry" />
        </mxCell>
        <mxCell id="13U1sQ4McdwzNEOscN47-67" value="" style="endArrow=none;html=1;rounded=0;entryX=0.5;entryY=1;entryDx=0;entryDy=0;exitX=0.5;exitY=0;exitDx=0;exitDy=0;" edge="1" parent="1" source="13U1sQ4McdwzNEOscN47-17" target="13U1sQ4McdwzNEOscN47-9">
          <mxGeometry width="50" height="50" relative="1" as="geometry">
            <mxPoint x="690" y="210" as="sourcePoint" />
            <mxPoint x="740" y="160" as="targetPoint" />
          </mxGeometry>
        </mxCell>
        <mxCell id="13U1sQ4McdwzNEOscN47-49" value="&lt;div&gt;과목코드&lt;/div&gt;" style="ellipse;whiteSpace=wrap;html=1;align=center;" vertex="1" parent="1">
          <mxGeometry x="76" y="510" width="100" height="40" as="geometry" />
        </mxCell>
        <mxCell id="13U1sQ4McdwzNEOscN47-74" value="" style="endArrow=none;html=1;rounded=0;entryX=0;entryY=0.5;entryDx=0;entryDy=0;exitX=1;exitY=0.5;exitDx=0;exitDy=0;" edge="1" parent="1" source="13U1sQ4McdwzNEOscN47-2">
          <mxGeometry relative="1" as="geometry">
            <mxPoint x="280" y="420" as="sourcePoint" />
            <mxPoint x="390" y="419.5" as="targetPoint" />
          </mxGeometry>
        </mxCell>
        <mxCell id="13U1sQ4McdwzNEOscN47-78" value="강의" style="shape=rhombus;double=1;perimeter=rhombusPerimeter;whiteSpace=wrap;html=1;align=center;" vertex="1" parent="1">
          <mxGeometry x="116" y="220" width="104" height="60" as="geometry" />
        </mxCell>
        <mxCell id="13U1sQ4McdwzNEOscN47-80" value="" style="endArrow=none;html=1;rounded=0;entryX=0.5;entryY=1;entryDx=0;entryDy=0;" edge="1" parent="1">
          <mxGeometry width="50" height="50" relative="1" as="geometry">
            <mxPoint x="168" y="220" as="sourcePoint" />
            <mxPoint x="167.5" y="120" as="targetPoint" />
          </mxGeometry>
        </mxCell>
        <mxCell id="13U1sQ4McdwzNEOscN47-81" value="" style="endArrow=none;html=1;rounded=0;entryX=0.5;entryY=1;entryDx=0;entryDy=0;exitX=0.5;exitY=0;exitDx=0;exitDy=0;" edge="1" parent="1">
          <mxGeometry width="50" height="50" relative="1" as="geometry">
            <mxPoint x="167.5" y="400" as="sourcePoint" />
            <mxPoint x="167.5" y="280" as="targetPoint" />
          </mxGeometry>
        </mxCell>
        <mxCell id="13U1sQ4McdwzNEOscN47-83" value="1" style="text;html=1;align=center;verticalAlign=middle;whiteSpace=wrap;rounded=0;" vertex="1" parent="1">
          <mxGeometry x="116" y="150" width="60" height="30" as="geometry" />
        </mxCell>
        <mxCell id="13U1sQ4McdwzNEOscN47-84" value="N" style="text;html=1;align=center;verticalAlign=middle;whiteSpace=wrap;rounded=0;" vertex="1" parent="1">
          <mxGeometry x="100" y="330" width="60" height="30" as="geometry" />
        </mxCell>
        <mxCell id="13U1sQ4McdwzNEOscN47-85" value="" style="endArrow=none;html=1;rounded=0;entryX=0;entryY=0.5;entryDx=0;entryDy=0;exitX=1;exitY=0.5;exitDx=0;exitDy=0;" edge="1" parent="1">
          <mxGeometry relative="1" as="geometry">
            <mxPoint x="230" y="100" as="sourcePoint" />
            <mxPoint x="400" y="99.5" as="targetPoint" />
          </mxGeometry>
        </mxCell>
        <mxCell id="13U1sQ4McdwzNEOscN47-86" value="" style="endArrow=none;html=1;rounded=0;exitX=1;exitY=0.5;exitDx=0;exitDy=0;" edge="1" parent="1">
          <mxGeometry relative="1" as="geometry">
            <mxPoint x="510" y="100" as="sourcePoint" />
            <mxPoint x="640" y="100" as="targetPoint" />
          </mxGeometry>
        </mxCell>
        <mxCell id="13U1sQ4McdwzNEOscN47-87" value="" style="endArrow=none;html=1;rounded=0;entryX=0.5;entryY=1;entryDx=0;entryDy=0;" edge="1" parent="1">
          <mxGeometry width="50" height="50" relative="1" as="geometry">
            <mxPoint x="700" y="400" as="sourcePoint" />
            <mxPoint x="699.5" y="300" as="targetPoint" />
          </mxGeometry>
        </mxCell>
        <mxCell id="13U1sQ4McdwzNEOscN47-88" value="N" style="text;html=1;align=center;verticalAlign=middle;whiteSpace=wrap;rounded=0;" vertex="1" parent="1">
          <mxGeometry x="710" y="320" width="60" height="30" as="geometry" />
        </mxCell>
        <mxCell id="13U1sQ4McdwzNEOscN47-89" value="1" style="text;strokeColor=none;fillColor=none;align=left;verticalAlign=middle;spacingLeft=4;spacingRight=4;overflow=hidden;points=[[0,0.5],[1,0.5]];portConstraint=eastwest;rotatable=0;whiteSpace=wrap;html=1;" vertex="1" parent="1">
          <mxGeometry x="720" y="180" width="80" height="30" as="geometry" />
        </mxCell>
        <mxCell id="13U1sQ4McdwzNEOscN47-90" value="N" style="text;html=1;align=center;verticalAlign=middle;whiteSpace=wrap;rounded=0;" vertex="1" parent="1">
          <mxGeometry x="550" y="380" width="60" height="30" as="geometry" />
        </mxCell>
        <mxCell id="13U1sQ4McdwzNEOscN47-91" value="M" style="text;html=1;align=center;verticalAlign=middle;whiteSpace=wrap;rounded=0;" vertex="1" parent="1">
          <mxGeometry x="280" y="380" width="60" height="30" as="geometry" />
        </mxCell>
        <mxCell id="13U1sQ4McdwzNEOscN47-93" value="수강번호" style="ellipse;whiteSpace=wrap;html=1;align=center;" vertex="1" parent="1">
          <mxGeometry x="350" y="510" width="100" height="40" as="geometry" />
        </mxCell>
        <mxCell id="13U1sQ4McdwzNEOscN47-95" value="" style="endArrow=none;html=1;rounded=0;exitX=0.5;exitY=0;exitDx=0;exitDy=0;entryX=0.5;entryY=1;entryDx=0;entryDy=0;" edge="1" parent="1">
          <mxGeometry relative="1" as="geometry">
            <mxPoint x="400" y="510" as="sourcePoint" />
            <mxPoint x="440" y="450" as="targetPoint" />
          </mxGeometry>
        </mxCell>
      </root>
    </mxGraphModel>
  </diagram>
</mxfile>
